<svg xmlns="http://www.w3.org/2000/svg" viewBox="0 0 960 420" width="960" height="420" role="img" aria-labelledby="t d">
  <title id="t">The Ultimate Web Hosting Server Software Stack in 2026</title>
  <desc id="d">Layered architecture diagram showcasing control panels, web servers, security suites, backup orchestrators, and automated billing software.</desc>
  <rect width="960" height="420" rx="20" fill="#F8FAFC"/>
  
  <!-- Layer 1: Client & Automation -->
  <rect x="40" y="40" width="880" height="58" rx="10" fill="#FFFFFF" stroke="#E2E8F0" stroke-width="1.5"/>
  <rect x="40" y="40" width="8" height="58" rx="4" fill="#2563EB"/>
  <text x="65" y="66" font-family="Inter, Segoe UI, sans-serif" font-size="14" font-weight="700" fill="#1D4ED8">BILLING &amp; CLIENT PORTAL</text>
  <text x="65" y="86" font-family="Inter, Segoe UI, sans-serif" font-size="13" fill="#64748B">WHMCS · Automated Invoice &amp; Account Provisioning</text>
  <rect x="680" y="52" width="220" height="34" rx="6" fill="#EFF6FF"/>
  <text x="790" y="74" font-family="Inter, Segoe UI, sans-serif" font-size="12" font-weight="600" fill="#1D4ED8" text-anchor="middle">whmcs-license</text>

  <!-- Layer 2: Control Panel & Hypervisor -->
  <rect x="40" y="110" width="880" height="58" rx="10" fill="#FFFFFF" stroke="#E2E8F0" stroke-width="1.5"/>
  <rect x="40" y="110" width="8" height="58" rx="4" fill="#0284C7"/>
  <text x="65" y="136" font-family="Inter, Segoe UI, sans-serif" font-size="14" font-weight="700" fill="#0284C7">CONTROL PANEL &amp; CLOUD</text>
  <text x="65" y="156" font-family="Inter, Segoe UI, sans-serif" font-size="13" fill="#64748B">cPanel &amp; WHM · Plesk · Webuzo · Virtualizor KVM</text>
  <rect x="680" y="122" width="220" height="34" rx="6" fill="#F0F9FF"/>
  <text x="790" y="144" font-family="Inter, Segoe UI, sans-serif" font-size="12" font-weight="600" fill="#0369A1" text-anchor="middle">cpanel / plesk / virtualizor</text>

  <!-- Layer 3: Web Server & PHP Acceleration -->
  <rect x="40" y="180" width="880" height="58" rx="10" fill="#FFFFFF" stroke="#E2E8F0" stroke-width="1.5"/>
  <rect x="40" y="180" width="8" height="58" rx="4" fill="#F59E0B"/>
  <text x="65" y="206" font-family="Inter, Segoe UI, sans-serif" font-size="14" font-weight="700" fill="#D97706">WEB SERVER &amp; CACHE</text>
  <text x="65" y="226" font-family="Inter, Segoe UI, sans-serif" font-size="13" fill="#64748B">LiteSpeed Enterprise (LSCache &amp; HTTP/3) · Softaculous 1-Click</text>
  <rect x="680" y="192" width="220" height="34" rx="6" fill="#FEF3C7"/>
  <text x="790" y="214" font-family="Inter, Segoe UI, sans-serif" font-size="12" font-weight="600" fill="#B45309" text-anchor="middle">litespeed / softaculous</text>

  <!-- Layer 4: Multi-Tenant OS & Security -->
  <rect x="40" y="250" width="880" height="58" rx="10" fill="#FFFFFF" stroke="#E2E8F0" stroke-width="1.5"/>
  <rect x="40" y="250" width="8" height="58" rx="4" fill="#10B981"/>
  <text x="65" y="276" font-family="Inter, Segoe UI, sans-serif" font-size="14" font-weight="700" fill="#047857">SECURITY &amp; OS ISOLATION</text>
  <text x="65" y="296" font-family="Inter, Segoe UI, sans-serif" font-size="13" fill="#64748B">CloudLinux OS (CageFS + LVE) · Imunify360 (AI WAF &amp; Anti-Malware)</text>
  <rect x="680" y="262" width="220" height="34" rx="6" fill="#ECFDF5"/>
  <text x="790" y="284" font-family="Inter, Segoe UI, sans-serif" font-size="12" font-weight="600" fill="#047857" text-anchor="middle">cloudlinux / imunify360</text>

  <!-- Layer 5: Enterprise Backups & Disaster Recovery -->
  <rect x="40" y="320" width="880" height="58" rx="10" fill="#FFFFFF" stroke="#E2E8F0" stroke-width="1.5"/>
  <rect x="40" y="320" width="8" height="58" rx="4" fill="#6366F1"/>
  <text x="65" y="346" font-family="Inter, Segoe UI, sans-serif" font-size="14" font-weight="700" fill="#4338CA">BACKUPS &amp; DISASTER RECOVERY</text>
  <text x="65" y="366" font-family="Inter, Segoe UI, sans-serif" font-size="13" fill="#64748B">JetBackup 5 (Multi-destination Incremental Backups to S3 / Wasabi)</text>
  <rect x="680" y="332" width="220" height="34" rx="6" fill="#EEF2FF"/>
  <text x="790" y="354" font-family="Inter, Segoe UI, sans-serif" font-size="12" font-weight="600" fill="#4338CA" text-anchor="middle">jetbackup-license</text>
</svg>
